<svg xmlns="http://www.w3.org/2000/svg" viewBox="0 0 1440 320">
  <path fill="none" stroke="#ffffff" stroke-width="1" stroke-opacity="0.2" d="M0,96L48,128C96,160,192,224,288,218.7C384,213,480,139,576,122.7C672,107,768,149,864,165.3C960,181,1056,171,1152,170.7C1248,171,1344,181,1392,186.7L1440,192L1440,320L1392,320C1344,320,1248,320,1152,320C1056,320,960,320,864,320C768,320,672,320,576,320C480,320,384,320,288,320C192,320,96,320,48,320L0,320Z"></path>
  <path fill="none" stroke="#ffffff" stroke-width="1" stroke-opacity="0.2" d="M0,192L48,202.7C96,213,192,235,288,218.7C384,203,480,149,576,138.7C672,128,768,160,864,181.3C960,203,1056,213,1152,213.3C1248,213,1344,203,1392,197.3L1440,192L1440,320L1392,320C1344,320,1248,320,1152,320C1056,320,960,320,864,320C768,320,672,320,576,320C480,320,384,320,288,320C192,320,96,320,48,320L0,320Z"></path>
  <path fill="none" stroke="#ffffff" stroke-width="1" stroke-opacity="0.2" d="M0,128L48,144C96,160,192,192,288,197.3C384,203,480,181,576,176C672,171,768,181,864,170.7C960,160,1056,128,1152,112C1248,96,1344,96,1392,96L1440,96L1440,320L1392,320C1344,320,1248,320,1152,320C1056,320,960,320,864,320C768,320,672,320,576,320C480,320,384,320,288,320C192,320,96,320,48,320L0,320Z"></path>
</svg>
